<?xml version="1.0" encoding="utf-8"?>
<!-- Generator: Adobe Illustrator 23.0.1, SVG Export Plug-In . SVG Version: 6.00 Build 0)  -->
<svg version="1.1" xmlns="http://www.w3.org/2000/svg" xmlns:xlink="http://www.w3.org/1999/xlink" x="0px" y="0px"
	 viewBox="0 0 2500 2500" style="enable-background:new 0 0 2500 2500;" xml:space="preserve">
<style type="text/css">
	.st0{fill:#EFEB5E;}
	.st1{fill:#F277C9;}
	.st2{fill:#EDB266;}
	.st3{fill:none;stroke:#000000;stroke-width:10.6907;stroke-miterlimit:10;}
	.st4{fill:#C6C6C6;}
	.st5{fill:#DDDDDD;}
	.st6{fill:#969696;}
	.st7{fill:#E24D4D;}
	.st8{fill:#FFFFFF;}
	.st9{fill:#5CABF2;}
	.st10{fill:#3B8ECC;}
	.st11{fill:#7A7A7A;}
	.st12{fill:#DD2C2C;}
	.st13{fill:none;stroke:#000000;stroke-width:23.2288;stroke-miterlimit:10;}
	.st14{fill:none;stroke:#000000;stroke-width:14.8197;stroke-miterlimit:10;}
	.st15{fill:none;stroke:#000000;stroke-width:14.4491;stroke-miterlimit:10;}
	.st16{fill:none;stroke:#000000;stroke-width:11.6144;stroke-miterlimit:10;}
</style>
<g id="Layer_2">
	<g>
		<g>
			<path class="st0" d="M1014.1,836.13L895.52,693.54c-0.94-1.13-2.72-0.97-3.43,0.32c-5.1,9.24-23.44,39.06-49.22,42.54
				c-1.49,0.2-2.18,1.95-1.21,3.1l120.22,142.95C961.88,882.46,1001.94,879.56,1014.1,836.13z"/>
			<path class="st1" d="M1015.38,836.57l7.6,9.14c11.59,13.94,10.98,34.65-1.99,47.32c-0.23,0.22-0.46,0.44-0.69,0.66
				c-14.65,13.84-38.02,12.25-50.99-3.17l-7.05-8.38l18.53-1.96l18.1-11.03l11.78-14.78L1015.38,836.57z"/>
			<polygon class="st2" points="841.3,737.47 812.03,652.87 892.75,693.14 877.42,714.86 856.6,732.85 			"/>
			<polygon points="839.02,664.81 820.42,682.66 811.42,651.49 			"/>
		</g>
		<g>
			<path class="st3" d="M1014.1,836.13L895.52,693.54c-0.94-1.13-2.72-0.97-3.43,0.32c-5.1,9.24-23.44,39.06-49.22,42.54
				c-1.49,0.2-2.18,1.95-1.21,3.1l120.22,142.95C961.88,882.46,1001.94,879.56,1014.1,836.13z"/>
			<path class="st3" d="M962.26,882.13l7.05,8.38c12.97,15.43,36.34,17.01,50.99,3.17c0.23-0.22,0.46-0.44,0.69-0.66
				c12.97-12.66,13.58-33.38,1.99-47.32l-7.6-9.14"/>
			<polyline class="st3" points="892.75,693.14 812.03,652.87 841.3,737.47 			"/>
			<polygon points="839.02,664.81 820.42,682.66 811.42,651.49 			"/>
		</g>
	</g>
	<path class="st4" d="M1554.13,1235.61v537.77c-60.94,17.5-119.12,28.9-173.61,35.76c-257.26,32.43-432.76-35.76-432.76-35.76
		v-537.77H1554.13z"/>
	<path class="st5" d="M1380.52,1809.15c-257.26,32.43-432.76-35.76-432.76-35.76v-537.77h121.46c29.74,63.29-10.67,172.3-6.7,243.83
		c4.02,72.38,23.77,145.76,68.35,202.94C1189.74,1757.91,1285.29,1796.71,1380.52,1809.15z"/>
	<path class="st6" d="M1200.65,1817.89v314.92c0,37.39-19.95,70.1-49.8,88.1c-15.47,9.33-33.6,14.69-52.98,14.69
		c-28.39,0-54.08-11.5-72.68-30.1s-30.1-44.3-30.1-72.68v-344.94l54.51,11.3l29.7,6.16L1200.65,1817.89z"/>
	<path class="st6" d="M1489.85,1789.73v343.09c0,56.77-46.02,102.79-102.79,102.79c-16,0-31.15-3.66-44.66-10.17
		c-10.44-5.05-19.91-11.81-28.03-19.93c-18.61-18.61-30.1-44.3-30.1-72.68v-315.75l113.4-10.45l49.74-9.12L1489.85,1789.73z"/>
	<path class="st7" d="M1554.13,1061.84l26.89,46.75v117.75c-347.69,123.32-660.16,0-660.16,0v-117.75l26.66-34.97"/>
	<path class="st4" d="M1554.13,1112.49V742.74c0-167.51-135.79-303.3-303.3-303.3h0c-167.51,0-303.3,135.79-303.3,303.3v369.75
		C947.53,1112.49,1205.51,1207.26,1554.13,1112.49z"/>
	<path class="st4" d="M1554.13,742.73v369.76c-201.35,54.73-372.47,46.24-481.11,29.3c-79.45-12.39-125.49-29.3-125.49-29.3V742.73
		c0-83.75,33.95-159.58,88.84-214.46c52.59-52.59,124.41-85.97,204.02-88.65c3.46-0.13,6.96-0.19,10.45-0.19
		C1418.34,439.44,1554.13,575.23,1554.13,742.73z"/>
	<path class="st5" d="M1240.38,439.62c-7.39,12.83-20.59,23.65-32.3,33.51c-90.74,76.4-138.11,194.55-152.49,312.3
		c-14.37,117.76,0.85,236.88,16.04,354.53l1.38,1.84c-79.45-12.39-125.49-29.3-125.49-29.3V742.73
		c0-83.75,33.95-159.58,88.84-214.46C1088.95,475.68,1160.78,442.31,1240.38,439.62z"/>
	<circle class="st8" cx="1098.97" cy="781.56" r="96.49"/>
	<circle class="st8" cx="1386.78" cy="781.71" r="121.51"/>
	<circle cx="1386.78" cy="781.71" r="86.29"/>
	<circle cx="1098.75" cy="781.71" r="68.25"/>
	<circle class="st7" cx="1322.02" cy="293.1" r="27.87"/>
	<polygon class="st7" points="881.83,1341.87 881.83,1382.53 904.56,1420.52 947.53,1435.95 944.55,1276.83 903.07,1296 	"/>
	<polyline class="st7" points="1559.95,1435.95 1590.31,1426.66 1612.38,1401.11 1618.19,1352.33 1608.89,1305.87 1560.11,1278 
		1550.82,1296.58 1554.13,1425.33 	"/>
	<circle class="st9" cx="1404.48" cy="1401.11" r="48.78"/>
	<circle class="st10" cx="1404.48" cy="1401.11" r="26.11"/>
	<path class="st11" d="M1150.85,2220.91c-15.47,9.33-33.6,14.69-52.98,14.69c-28.39,0-54.08-11.5-72.68-30.1s-30.1-44.3-30.1-72.68
		v-344.94l54.51,11.3l1.17,4.18c-7.31,67.99-14.61,136.66-6.83,204.6c7.78,67.94,32.04,136.07,80.01,184.82
		C1132.96,2201.96,1143.02,2210.82,1150.85,2220.91z"/>
	<path class="st11" d="M1489.85,1789.73v343.09c0,56.77-46.02,102.79-102.79,102.79c-16,0-31.15-3.66-44.66-10.17
		c8.14-12.03,19.85-22.13,30.2-32.65c47.97-48.75,72.23-116.88,80.01-184.82c7.78-67.94,0.48-136.61-6.83-204.6l1.64-5.87
		L1489.85,1789.73z"/>
	<circle class="st8" cx="1408" cy="755" r="42"/>
	<circle class="st8" cx="1117" cy="764" r="33"/>
	<path class="st8" d="M1099.5,987.5c0,0,175,48,308,0c0,0-27,120-161,117C1246.5,1104.5,1144.5,1110.5,1099.5,987.5z"/>
	<polygon class="st12" points="567,1397 567,1457 542,1546 449,1534 347,1510 372,1401 442,1418 470,1414 438,1387 461,1351 
		533,1389 	"/>
	<polygon class="st12" points="1943,1397 1936,1450 1943,1500 1962,1546 2060,1537 2157,1511 2130,1397 2080,1413 2039,1414 
		2065,1386 2038,1351 	"/>
	<polygon class="st6" points="892,1408 826,1456 746,1510 627,1546 546,1546 563.35,1495.62 567,1485 567.5,1450.47 567,1397 
		627,1410 710,1405 781,1382 882,1325 879,1358 883.75,1376.28 	"/>
	<polygon class="st6" points="1962,1546 1882,1546 1765,1510 1702,1478 1608.94,1405.09 1615.3,1367.14 1618,1351 1616,1319 
		1676,1360 1809,1406 1894,1410 1943,1397 1938.12,1433.93 1940.56,1482.58 1940.83,1483.59 1949.27,1515.17 	"/>
	<path class="st11" d="M892,1408l-66,48l-80,54l-119,36h-81l17.35-50.38c115.51-6.35,229.01-48.32,320.4-119.34L892,1408z"/>
	<path class="st11" d="M1962,1546h-80l-117-36l-63-32l-93.06-72.91l6.36-37.95c88.69,77.83,207.66,120.11,325.53,116.45l8.44,31.58
		L1962,1546z"/>
</g>
<g id="Layer_1">
	<circle class="st13" cx="1099.97" cy="781.56" r="96.49"/>
	<circle class="st13" cx="1387.78" cy="781.71" r="121.51"/>
	<path class="st14" d="M1555.13,1112.49V742.74c0-167.51-135.79-303.3-303.3-303.3h0c-167.51,0-303.3,135.79-303.3,303.3v369.75
		C948.53,1112.49,1206.51,1207.26,1555.13,1112.49z"/>
	<path class="st14" d="M1555.13,1061.84l26.89,46.75v117.75c-347.69,123.32-660.16,0-660.16,0v-117.75l26.66-34.97"/>
	<path class="st14" d="M948.75,1235.62v537.77c0,0,257.76,100.14,606.38,0v-537.77"/>
	<path class="st15" d="M1555.13,1281.05L1555.13,1281.05c33.8,0,61.19,27.4,61.19,61.19v32.45c0,33.8-27.4,61.19-61.19,61.19"/>
	<path class="st15" d="M944.12,1281.05L944.12,1281.05c-33.8,0-61.19,27.4-61.19,61.19v32.45c0,33.8,27.4,61.19,61.19,61.19"/>
	<path class="st14" d="M1201.65,1817.89v314.93c0,56.77-46.02,102.79-102.79,102.79h0c-56.77,0-102.79-46.02-102.79-102.79v-344.93"
		/>
	<path class="st14" d="M1490.85,1789.72v343.09c0,56.77-46.02,102.79-102.79,102.79h0c-56.77,0-102.79-46.02-102.79-102.79v-315.75"
		/>
	<circle class="st16" cx="1406.06" cy="1401.69" r="48.78"/>
	<path class="st16" d="M1234.06,443.83c-8.67-54.36,19.54-112.71,67.52-139.68"/>
	<circle class="st16" cx="1323.02" cy="293.1" r="30.2"/>
	<path class="st14" d="M1612.5,1321.5c0,0,222,175,430,30l23,36l-34,29c0,0,60,3,99-20l26,114c0,0-314,131-549.87-107.73"/>
	<path class="st14" d="M1943.29,1396.69c0,0-24.5,73.54,18.86,149.68"/>
	<path class="st14" d="M886.5,1321.5c0,0-217.11,175-425.11,30l-23,36l34,29c0,0-60,3-99-20l-26,114c0,0,314,131,549.87-107.73"/>
	<path class="st14" d="M560.6,1396.69c0,0,24.5,73.54-18.86,149.68"/>
	<path class="st14" d="M1099.5,987.5c0,0,175,48,308,0c0,0-27,120-161,117C1246.5,1104.5,1144.5,1110.5,1099.5,987.5z"/>
</g>
</svg>
