<?xml version="1.0" encoding="utf-8"?>
<!-- Generator: Adobe Illustrator 23.0.1, SVG Export Plug-In . SVG Version: 6.00 Build 0)  -->
<svg version="1.1" xmlns="http://www.w3.org/2000/svg" xmlns:xlink="http://www.w3.org/1999/xlink" x="0px" y="0px"
	 viewBox="0 0 2500 2500" style="enable-background:new 0 0 2500 2500;" xml:space="preserve">
<style type="text/css">
	.st0{fill:#EFEB5E;}
	.st1{fill:#F277C9;}
	.st2{fill:#EDB266;}
	.st3{fill:none;stroke:#000000;stroke-width:10.6907;stroke-miterlimit:10;}
	.st4{fill:#C6C6C6;}
	.st5{fill:#DDDDDD;}
	.st6{fill:#969696;}
	.st7{fill:#E24D4D;}
	.st8{fill:#FFFFFF;}
	.st9{fill:#5CABF2;}
	.st10{fill:#3B8ECC;}
	.st11{fill:#7A7A7A;}
	.st12{fill:#7A7979;}
	.st13{fill:#DD2C2C;}
	.st14{fill:none;stroke:#000000;stroke-width:23.2288;stroke-miterlimit:10;}
	.st15{fill:none;stroke:#000000;stroke-width:14.8197;stroke-miterlimit:10;}
	.st16{fill:none;stroke:#000000;stroke-width:14.4491;stroke-miterlimit:10;}
	.st17{fill:none;stroke:#000000;stroke-width:11.6144;stroke-miterlimit:10;}
	.st18{fill:none;stroke:#000000;stroke-width:15;stroke-miterlimit:10;}
	.st19{fill:none;stroke:#000000;stroke-width:8;stroke-miterlimit:10;}
	.st20{fill:none;stroke:#000000;stroke-width:14;stroke-miterlimit:10;}
</style>
<g id="Layer_2">
	<g>
		<g>
			<path class="st0" d="M961.1,760.13L842.52,617.54c-0.94-1.13-2.72-0.97-3.43,0.32c-5.1,9.24-23.44,39.06-49.22,42.54
				c-1.49,0.2-2.18,1.95-1.21,3.1l120.22,142.95C908.88,806.46,948.94,803.56,961.1,760.13z"/>
			<path class="st1" d="M962.38,760.57l7.6,9.14c11.59,13.94,10.98,34.65-1.99,47.32c-0.23,0.22-0.46,0.44-0.69,0.66
				c-14.65,13.84-38.02,12.25-50.99-3.17l-7.05-8.38l18.53-1.96l18.1-11.03l11.78-14.78L962.38,760.57z"/>
			<polygon class="st2" points="788.3,661.47 759.03,576.87 839.75,617.14 824.42,638.86 803.6,656.85 			"/>
			<polygon points="786.02,588.81 767.42,606.66 758.42,575.49 			"/>
		</g>
		<g>
			<path class="st3" d="M961.1,760.13L842.52,617.54c-0.94-1.13-2.72-0.97-3.43,0.32c-5.1,9.24-23.44,39.06-49.22,42.54
				c-1.49,0.2-2.18,1.95-1.21,3.1l120.22,142.95C908.88,806.46,948.94,803.56,961.1,760.13z"/>
			<path class="st3" d="M909.26,806.13l7.05,8.38c12.97,15.43,36.34,17.01,50.99,3.17c0.23-0.22,0.46-0.44,0.69-0.66
				c12.97-12.66,13.58-33.38,1.99-47.32l-7.6-9.14"/>
			<polyline class="st3" points="839.75,617.14 759.03,576.87 788.3,661.47 			"/>
			<polygon points="786.02,588.81 767.42,606.66 758.42,575.49 			"/>
		</g>
	</g>
	<path class="st4" d="M1510.13,1173.61v537.77c-60.94,17.5-119.12,28.9-173.61,35.76c-257.26,32.43-432.76-35.76-432.76-35.76
		v-537.77H1510.13z"/>
	<path class="st5" d="M1336.52,1747.15c-257.26,32.43-432.76-35.76-432.76-35.76v-537.77h121.46c29.74,63.29-10.67,172.3-6.7,243.83
		c4.02,72.38,23.77,145.76,68.35,202.94C1145.74,1695.91,1241.29,1734.71,1336.52,1747.15z"/>
	<path class="st6" d="M1156.65,1755.89v314.92c0,37.39-19.95,70.1-49.8,88.1c-15.47,9.33-33.6,14.69-52.98,14.69
		c-28.39,0-54.08-11.5-72.68-30.1c-18.61-18.61-30.1-44.3-30.1-72.68v-344.94l54.51,11.3l29.7,6.16L1156.65,1755.89z"/>
	<path class="st6" d="M1445.85,1727.73v343.09c0,56.77-46.02,102.79-102.79,102.79c-16,0-31.15-3.66-44.66-10.17
		c-10.44-5.05-19.91-11.81-28.03-19.93c-18.61-18.61-30.1-44.3-30.1-72.68v-315.75l113.4-10.45l49.74-9.12L1445.85,1727.73z"/>
	<path class="st7" d="M1510.13,999.84l26.89,46.75v117.75c-347.69,123.32-660.16,0-660.16,0v-117.75l26.66-34.97"/>
	<path class="st4" d="M1510.13,1050.49V680.74c0-167.51-135.79-303.3-303.3-303.3h0c-167.51,0-303.3,135.79-303.3,303.3v369.75
		C903.53,1050.49,1161.51,1145.26,1510.13,1050.49z"/>
	<path class="st4" d="M1510.13,680.73v369.76c-201.35,54.73-372.47,46.24-481.11,29.3c-79.45-12.39-125.49-29.3-125.49-29.3V680.73
		c0-83.75,33.95-159.58,88.84-214.46c52.59-52.59,124.41-85.97,204.02-88.65c3.46-0.13,6.96-0.19,10.45-0.19
		C1374.34,377.44,1510.13,513.23,1510.13,680.73z"/>
	<path class="st5" d="M1196.38,377.62c-7.39,12.83-20.59,23.65-32.3,33.51c-90.74,76.4-138.11,194.55-152.49,312.3
		c-14.37,117.76,0.85,236.88,16.04,354.53l1.38,1.84c-79.45-12.39-125.49-29.3-125.49-29.3V680.73
		c0-83.75,33.95-159.58,88.84-214.46C1044.95,413.68,1116.78,380.31,1196.38,377.62z"/>
	<circle class="st8" cx="1054.97" cy="719.56" r="96.49"/>
	<circle class="st8" cx="1342.78" cy="719.71" r="121.51"/>
	<circle class="st7" cx="1278.02" cy="231.1" r="27.87"/>
	<polygon class="st7" points="837.83,1279.87 837.83,1320.53 860.56,1358.52 903.53,1373.95 900.55,1214.83 859.07,1234 	"/>
	<polyline class="st7" points="1515.95,1373.95 1546.31,1364.66 1568.38,1339.11 1574.19,1290.33 1564.89,1243.87 1516.11,1216 
		1506.82,1234.58 1510.13,1363.33 	"/>
	<circle class="st9" cx="1360.48" cy="1339.11" r="48.78"/>
	<circle class="st10" cx="1360.48" cy="1339.11" r="26.11"/>
	<path class="st11" d="M1106.85,2158.91c-15.47,9.33-33.6,14.69-52.98,14.69c-28.39,0-54.08-11.5-72.68-30.1
		c-18.61-18.61-30.1-44.3-30.1-72.68v-344.94l54.51,11.3l1.17,4.18c-7.31,67.99-14.61,136.66-6.83,204.6
		c7.78,67.94,32.04,136.07,80.01,184.82C1088.96,2139.96,1099.02,2148.82,1106.85,2158.91z"/>
	<path class="st11" d="M1445.85,1727.73v343.09c0,56.77-46.02,102.79-102.79,102.79c-16,0-31.15-3.66-44.66-10.17
		c8.14-12.03,19.85-22.13,30.2-32.65c47.97-48.75,72.23-116.88,80.01-184.82c7.78-67.94,0.48-136.61-6.83-204.6l1.64-5.87
		L1445.85,1727.73z"/>
	<path class="st8" d="M1326,982.92c0-46.39-58.2-84-130-84s-130,37.61-130,84C1066,982.92,1196,925.49,1326,982.92z"/>
	<path class="st12" d="M967.86,685.86c0,0,98.57-33.43,180,7.71L1115,635.29l-57.14-16.11l-43.71,14.4l-35.92,22.8l-14.29,31.16"/>
	<path class="st12" d="M1227.66,680.72c0,0,152.48-43.58,231.34,7.78l-31-55.4l-85.22-34.9l-64.6,18.59l-42.06,44.69L1227.66,680.72
		z"/>
	<polygon class="st6" points="874.64,1368.79 818.64,1530.84 801.87,1683.56 764.29,1687.11 759.63,1685.96 710.9,1673.95 
		657.15,1641.39 670.2,1591.43 740.22,1437.88 830.48,1276.75 834.83,1268.98 837.92,1263.46 837.84,1272.09 837.57,1303 
		844.19,1339.69 	"/>
	<polygon class="st6" points="1761.46,1642.64 1729.86,1662.21 1686.74,1687.11 1657.81,1689.17 1612.06,1692.43 1607.6,1614.29 
		1592.86,1525.3 1563.13,1428.05 1537.02,1369.7 1560.92,1347.74 1563.97,1336.24 1571.09,1309.43 1571.09,1274.83 1639.74,1373.95 
			"/>
	<polygon class="st13" points="657.15,1641.39 630.49,1701.14 603.57,1801.86 719,1857.29 743.53,1772.23 757.86,1813.43 
		810.14,1804.43 801.87,1683.56 764.29,1687.11 719.29,1677.14 691.52,1662.21 	"/>
	<polygon class="st13" points="1612.06,1692.43 1610.83,1744.03 1603.75,1809.75 1656.03,1818.75 1668.89,1772.47 1694.89,1862.61 
		1810.32,1807.18 1778.71,1692.43 1761.46,1642.64 1699,1682.29 1632.14,1692.43 	"/>
	<path class="st11" d="M874.64,1368.79l-56,162.05l-16.77,152.72l-37.58,3.55l-4.66-1.15c-18.13-44.12-13.14-95.41,0.52-141.52
		c14.61-49.32,38.38-95.55,53.08-144.85c11.85-39.78,17.68-81.35,17.25-122.84c-0.05-4.12-0.15-8.24-0.32-12.36
		c1.59,1.5,3.16,3.03,4.67,4.59c1.04,1.03,2.04,2.06,3.01,3.11l-0.27,30.91l6.62,36.69L874.64,1368.79z"/>
	<path class="st11" d="M1657.81,1689.17l-45.75,3.26l-4.46-78.14l-14.74-88.99l-29.73-97.25l-26.11-58.35l23.9-21.96l3.05-11.5
		c14.73,64.32,44.41,124.65,66.79,186.99C1649.79,1576.26,1663.49,1633.93,1657.81,1689.17z"/>
</g>
<g id="Layer_1">
	<circle class="st14" cx="1054.97" cy="719.56" r="96.49"/>
	<circle class="st14" cx="1342.78" cy="719.71" r="121.51"/>
	<path class="st15" d="M1510.13,1050.49V680.74c0-167.51-135.79-303.3-303.3-303.3h0c-167.51,0-303.3,135.79-303.3,303.3v369.75
		C903.53,1050.49,1161.51,1145.26,1510.13,1050.49z"/>
	<path class="st15" d="M1510.13,999.84l26.89,46.75v117.75c-347.69,123.32-660.16,0-660.16,0v-117.75l26.66-34.97"/>
	<path class="st15" d="M903.75,1173.62v537.77c0,0,257.76,100.14,606.38,0v-537.77"/>
	<path class="st16" d="M1510.13,1219.05L1510.13,1219.05c33.8,0,61.19,27.4,61.19,61.19v32.45c0,33.8-27.4,61.19-61.19,61.19"/>
	<path class="st16" d="M899.12,1219.05L899.12,1219.05c-33.8,0-61.19,27.4-61.19,61.19v32.45c0,33.8,27.4,61.19,61.19,61.19"/>
	<path class="st15" d="M1156.65,1755.89v314.93c0,56.77-46.02,102.79-102.79,102.79h0c-56.77,0-102.79-46.02-102.79-102.79v-344.93"
		/>
	<path class="st15" d="M1445.85,1727.72v343.09c0,56.77-46.02,102.79-102.79,102.79h0c-56.77,0-102.79-46.02-102.79-102.79v-315.75"
		/>
	<circle class="st17" cx="1361.06" cy="1339.69" r="48.78"/>
	<path class="st17" d="M1189.06,381.83c-8.67-54.36,19.54-112.71,67.52-139.68"/>
	<circle class="st17" cx="1278.02" cy="231.1" r="30.2"/>
	<path class="st18" d="M961.5,688.5c0,0,98-35,190,0"/>
	<path class="st18" d="M1225.59,687.54c0,0,116.91-52.04,233.41-3.39"/>
	<circle cx="1054.5" cy="760.5" r="60.5"/>
	<circle cx="1347.5" cy="760.5" r="80.5"/>
	<circle class="st8" cx="1066" cy="740" r="24"/>
	<circle class="st8" cx="1367" cy="735" r="35"/>
	<path class="st19" d="M1326,982.92c0-46.39-58.2-84-130-84s-130,37.61-130,84C1066,982.92,1196,925.49,1326,982.92z"/>
	<path class="st20" d="M843.53,1254.64c0,0-183.38,282.36-239.96,547.22L719,1857.29l26-90.14l12.86,46.29l52.29-9
		c0,0-43.12-224.39,66.72-440.05"/>
	<path class="st20" d="M652.43,1637.31c0,0,70.03,65.52,149.44,46.24"/>
	<path class="st20" d="M1565.69,1254.57c0,0,188.05,287.76,244.62,552.61l-115.43,55.43l-26-90.14l-12.86,46.29l-52.29-9
		c0,0,43.12-224.39-66.72-440.05"/>
	<path class="st20" d="M1761.46,1642.64c0,0-70.03,65.52-149.44,46.24"/>
</g>
</svg>
