<?xml version="1.0" encoding="utf-8"?>
<!-- Generator: Adobe Illustrator 23.0.1, SVG Export Plug-In . SVG Version: 6.00 Build 0)  -->
<svg version="1.1" xmlns="http://www.w3.org/2000/svg" xmlns:xlink="http://www.w3.org/1999/xlink" x="0px" y="0px"
	 viewBox="0 0 2500 2500" style="enable-background:new 0 0 2500 2500;" xml:space="preserve">
<style type="text/css">
	.st0{fill:#C6C6C6;}
	.st1{fill:#DDDDDD;}
	.st2{fill:#969696;}
	.st3{fill:#E24D4D;}
	.st4{fill:#FFFFFF;}
	.st5{fill:#5CABF2;}
	.st6{fill:#3B8ECC;}
	.st7{fill:#7A7A7A;}
	.st8{fill:#DD2C2C;}
	.st9{fill:#EFEB5E;}
	.st10{fill:#F277C9;}
	.st11{fill:none;stroke:#000000;stroke-width:23.2288;stroke-miterlimit:10;}
	.st12{fill:none;stroke:#000000;stroke-width:14.8197;stroke-miterlimit:10;}
	.st13{fill:none;stroke:#000000;stroke-width:14.4491;stroke-miterlimit:10;}
	.st14{fill:none;stroke:#000000;stroke-width:11.6144;stroke-miterlimit:10;}
	.st15{fill:none;stroke:#000000;stroke-width:12.0687;stroke-miterlimit:10;}
	.st16{fill:none;stroke:#000000;stroke-width:12.3379;stroke-miterlimit:10;}
	.st17{fill:none;stroke:#000000;stroke-width:14;stroke-miterlimit:10;}
	.st18{fill:none;stroke:#000000;stroke-width:14.3948;stroke-miterlimit:10;}
</style>
<g id="Layer_2">
	<path class="st0" d="M1510.13,1173.61v537.77c-60.94,17.5-119.12,28.9-173.61,35.76c-257.26,32.43-432.76-35.76-432.76-35.76
		v-537.77H1510.13z"/>
	<path class="st1" d="M1336.52,1747.15c-257.26,32.43-432.76-35.76-432.76-35.76v-537.77h121.46c29.74,63.29-10.67,172.3-6.7,243.83
		c4.02,72.38,23.77,145.76,68.35,202.94C1145.74,1695.91,1241.29,1734.71,1336.52,1747.15z"/>
	<path class="st2" d="M1156.65,1755.89v314.92c0,37.39-19.95,70.1-49.8,88.1c-15.47,9.33-33.6,14.69-52.98,14.69
		c-28.39,0-54.08-11.5-72.68-30.1c-18.61-18.61-30.1-44.3-30.1-72.68v-344.94l54.51,11.3l29.7,6.16L1156.65,1755.89z"/>
	<path class="st2" d="M1445.85,1727.73v343.09c0,56.77-46.02,102.79-102.79,102.79c-16,0-31.15-3.66-44.66-10.17
		c-10.44-5.05-19.91-11.81-28.03-19.93c-18.61-18.61-30.1-44.3-30.1-72.68v-315.75l113.4-10.45l49.74-9.12L1445.85,1727.73z"/>
	<path class="st3" d="M1510.13,999.84l26.89,46.75v117.75c-347.69,123.32-660.16,0-660.16,0v-117.75l26.66-34.97"/>
	<path class="st0" d="M1510.13,1050.49V680.74c0-167.51-135.79-303.3-303.3-303.3h0c-167.51,0-303.3,135.79-303.3,303.3v369.75
		C903.53,1050.49,1161.51,1145.26,1510.13,1050.49z"/>
	<path class="st0" d="M1510.13,680.73v369.76c-201.35,54.73-372.47,46.24-481.11,29.3c-79.45-12.39-125.49-29.3-125.49-29.3V680.73
		c0-83.75,33.95-159.58,88.84-214.46c52.59-52.59,124.41-85.97,204.02-88.65c3.46-0.13,6.96-0.19,10.45-0.19
		C1374.34,377.44,1510.13,513.23,1510.13,680.73z"/>
	<path class="st1" d="M1196.38,377.62c-7.39,12.83-20.59,23.65-32.3,33.51c-90.74,76.4-138.11,194.55-152.49,312.3
		c-14.37,117.76,0.85,236.88,16.04,354.53l1.38,1.84c-79.45-12.39-125.49-29.3-125.49-29.3V680.73
		c0-83.75,33.95-159.58,88.84-214.46C1044.95,413.68,1116.78,380.31,1196.38,377.62z"/>
	<circle class="st4" cx="1054.97" cy="719.56" r="96.49"/>
	<circle class="st4" cx="1342.78" cy="719.71" r="121.51"/>
	<circle class="st3" cx="1278.02" cy="231.1" r="27.87"/>
	<polygon class="st3" points="837.83,1279.87 837.83,1320.53 860.56,1358.52 903.53,1373.95 900.55,1214.83 859.07,1234 	"/>
	<polyline class="st3" points="1515.95,1373.95 1546.31,1364.66 1568.38,1339.11 1574.19,1290.33 1564.89,1243.87 1516.11,1216 
		1506.82,1234.58 1510.13,1363.33 	"/>
	<circle class="st5" cx="1360.48" cy="1339.11" r="48.78"/>
	<circle class="st6" cx="1360.48" cy="1339.11" r="26.11"/>
	<path class="st7" d="M1106.85,2158.91c-15.47,9.33-33.6,14.69-52.98,14.69c-28.39,0-54.08-11.5-72.68-30.1
		c-18.61-18.61-30.1-44.3-30.1-72.68v-344.94l54.51,11.3l1.17,4.18c-7.31,67.99-14.61,136.66-6.83,204.6
		c7.78,67.94,32.04,136.07,80.01,184.82C1088.96,2139.96,1099.02,2148.82,1106.85,2158.91z"/>
	<path class="st7" d="M1445.85,1727.73v343.09c0,56.77-46.02,102.79-102.79,102.79c-16,0-31.15-3.66-44.66-10.17
		c8.14-12.03,19.85-22.13,30.2-32.65c47.97-48.75,72.23-116.88,80.01-184.82c7.78-67.94,0.48-136.61-6.83-204.6l1.64-5.87
		L1445.85,1727.73z"/>
	<polygon class="st2" points="1761.46,1642.64 1729.86,1662.21 1686.74,1687.11 1657.81,1689.17 1612.06,1692.43 1607.6,1614.29 
		1592.86,1525.3 1563.13,1428.05 1537.02,1369.7 1560.92,1347.74 1563.97,1336.24 1571.09,1309.43 1571.09,1274.83 1639.74,1373.95 
			"/>
	<polygon class="st8" points="1612.06,1692.43 1610.83,1744.03 1603.75,1809.75 1656.03,1818.75 1668.89,1772.47 1694.89,1862.61 
		1810.32,1807.18 1778.71,1692.43 1761.46,1642.64 1699,1682.29 1632.14,1692.43 	"/>
	<path class="st7" d="M1657.81,1689.17l-45.75,3.26l-4.46-78.14l-14.74-88.99l-29.73-97.25l-26.11-58.35l23.9-21.96l3.05-11.5
		c14.73,64.32,44.41,124.65,66.79,186.99C1649.79,1576.26,1663.49,1633.93,1657.81,1689.17z"/>
	<polygon class="st8" points="953.14,1254.49 956.8,1188.41 977.29,1136.14 1003.57,1102.43 1029.29,1087.75 1089.86,1100.14 
		1079,1133.29 1151,1153.86 1110.43,1296.47 	"/>
	<path class="st2" d="M1106.03,1295.29l-36.17,86.57l-83.15,106.28l-72.95,59.62l-86.47,43.95c-0.47-1.29-0.93-2.59-1.39-3.87
		c-73.83-207.53,11.93-307.97,11.93-307.97l1.72,46.85l16.82,29.74l31.3,17.49l26.09-59.53l39.38-59.93l72.15,15.94l10.4,3.2
		L1106.03,1295.29z"/>
	<path class="st7" d="M1106.03,1295.29l-36.17,86.57l-83.15,106.28l-72.95,59.62l-86.47,43.95c-0.47-1.29-0.93-2.59-1.39-3.87
		c103.04-76.64,178.35-189.75,209.79-314.21L1106.03,1295.29z"/>
	<polygon class="st9" points="1073.18,1087.75 1120.14,1022.89 1161.29,1027.57 1196.38,1049.86 1203.06,1069.86 1151,1153.86 
		1079.81,1130.82 1089.86,1095.57 	"/>
	<path class="st4" d="M1127.71,1005H1097v-13.37c0-32.38,26.25-58.63,58.63-58.63h73.73c32.38,0,58.63,26.25,58.63,58.63V1005
		h-73.29"/>
	<path class="st10" d="M1123.43,1017.79l27.57,1.83l32.86,19.38l19.2,27.3c0,0,17.66-37.58,17.23-39.3
		c-0.43-1.71-17.23-39.86-17.23-39.86l-32.52-8.14L1135,997.86l-11.57,21.76"/>
	<circle cx="1036.43" cy="705.57" r="72.86"/>
	<circle cx="1327.25" cy="705.57" r="98.69"/>
	<circle class="st4" cx="1073.18" cy="705.57" r="25.71"/>
	<circle class="st4" cx="1367.8" cy="702.61" r="44.65"/>
</g>
<g id="Layer_1">
	<circle class="st11" cx="1054.97" cy="719.56" r="96.49"/>
	<circle class="st11" cx="1342.78" cy="719.71" r="121.51"/>
	<path class="st12" d="M1189.51,1092.58c91.63,0.67,200.77-9.51,320.62-42.09V680.74c0-167.51-135.79-303.3-303.3-303.3h0
		c-167.51,0-303.3,135.79-303.3,303.3v369.75c0,0,64.5,23.69,172.57,35.54"/>
	<path class="st12" d="M958.34,1188.79c-51.58-12.65-81.47-24.45-81.47-24.45v-117.75l26.66-34.97"/>
	<path class="st12" d="M1510.13,999.84l26.89,46.75v117.75c-149.59,53.06-292.66,60.46-407.13,51.67"/>
	<path class="st12" d="M903.75,1554.28v157.11c0,0,257.76,100.14,606.38,0v-537.77"/>
	<g>
		<path d="M911.16,1173.62l0.28,40.2l-0.03,40.2c0.03,13.4-0.16,26.8-0.24,40.2l-0.16,20.1l-0.08,10.05l-0.04,5.02l-0.02,2.51
			l-0.01,1.26l0,0.63c-0.02,0.1,0.06,0.21-0.13,0.31c-0.2,0.1-0.58,0.21-1.37,0.31h-13.01v-160.79H911.16z"/>
	</g>
	<path class="st13" d="M1510.13,1219.05L1510.13,1219.05c33.8,0,61.19,27.4,61.19,61.19v32.45c0,33.8-27.4,61.19-61.19,61.19"/>
	<path class="st13" d="M899.12,1219.05L899.12,1219.05c-33.8,0-61.19,27.4-61.19,61.19v32.45c0,30.01,21.6,54.97,50.1,60.19"/>
	<path class="st12" d="M1156.65,1755.89v314.93c0,56.77-46.02,102.79-102.79,102.79h0c-56.77,0-102.79-46.02-102.79-102.79v-344.93"
		/>
	<path class="st12" d="M1445.85,1727.72v343.09c0,56.77-46.02,102.79-102.79,102.79h0c-56.77,0-102.79-46.02-102.79-102.79v-315.75"
		/>
	<circle class="st14" cx="1361.06" cy="1339.69" r="48.78"/>
	<path class="st14" d="M1189.06,381.83c-8.67-54.36,19.54-112.71,67.52-139.68"/>
	<circle class="st14" cx="1278.02" cy="231.1" r="30.2"/>
	<path class="st15" d="M1127.71,1005H1097v-13.37c0-32.38,26.25-58.63,58.63-58.63h73.73c32.38,0,58.63,26.25,58.63,58.63V1005
		h-73.29"/>
	<path class="st16" d="M953.28,1250.28l154.9,43.83l38.14-144.36l-67.95-19.33l9.44-32.32l-57.41-10.34
		C1030.41,1087.75,949.23,1118.29,953.28,1250.28z"/>
	<path class="st16" d="M839.55,1494.68"/>
	<path class="st16" d="M957.4,1254.49"/>
	<path class="st16" d="M840,1261c-57.68,100-57.42,224.27-12.71,330.71c133.1-50,229.72-160.01,278.75-293.47"/>
	<g>
		<path d="M961.43,1257.34c-12.06,14.19-23.15,29.18-33.04,44.96c-9.87,15.78-18.62,32.29-26.02,49.41
			c-7.49,17.08-13.55,34.81-18.37,52.88l-3.3,13.64c-0.93,4.59-1.78,9.19-2.78,13.77c-0.82,4.61-1.81,9.21-3.07,13.8
			c-1.06,4.61-2.32,9.23-4.14,13.85c-0.98-4.82-1.4-9.65-1.62-14.49c-0.03-4.81,0.22-9.62,0.63-14.41c0.62-4.76,1.39-9.5,2.09-14.26
			l2.72-14.16c3.96-18.83,9.69-37.3,16.8-55.23c7.21-17.89,15.88-35.23,26.06-51.65c10.17-16.43,21.75-32.01,34.79-46.27
			L961.43,1257.34z"/>
	</g>
	<path class="st17" d="M1565.69,1254.57c0,0,188.05,287.76,244.62,552.61l-115.43,55.43l-26-90.14l-12.86,46.29l-52.29-9
		c0,0,43.12-224.39-66.72-440.05"/>
	<path class="st17" d="M1761.46,1642.64c0,0-70.03,65.52-149.44,46.24"/>
	<path class="st18" d="M1142.61,1163.79l60.45-96.21c0,0-20.2-50.18-80.89-47.88l-48.99,77.04"/>
	<path class="st18" d="M1123.43,1017.79l7.37-13.42c13.1-20.6,39.9-28.34,61.48-16.92c0.38,0.2,0.76,0.4,1.13,0.61
		c23.78,13.08,31.36,43.7,16.92,66.68l-7.84,12.48"/>
</g>
</svg>
