<?xml version="1.0" encoding="utf-8"?>
<!-- Generator: Adobe Illustrator 23.0.1, SVG Export Plug-In . SVG Version: 6.00 Build 0)  -->
<svg version="1.1" xmlns="http://www.w3.org/2000/svg" xmlns:xlink="http://www.w3.org/1999/xlink" x="0px" y="0px"
	 viewBox="0 0 2500 2500" style="enable-background:new 0 0 2500 2500;" xml:space="preserve">
<style type="text/css">
	.st0{fill:#EFEB5E;}
	.st1{fill:#F277C9;}
	.st2{fill:#EDB266;}
	.st3{fill:none;stroke:#000000;stroke-width:10.6907;stroke-miterlimit:10;}
	.st4{fill:#969696;}
	.st5{fill:#C6C6C6;}
	.st6{fill:#DDDDDD;}
	.st7{fill:#E24D4D;}
	.st8{fill:#FFFFFF;}
	.st9{fill:#5CABF2;}
	.st10{fill:#3B8ECC;}
	.st11{fill:#DD2C2C;}
	.st12{fill:#7A7A7A;}
	.st13{fill:none;stroke:#000000;stroke-width:23.2288;stroke-miterlimit:10;}
	.st14{fill:none;stroke:#000000;stroke-width:8.9345;stroke-miterlimit:10;}
	.st15{fill:none;stroke:#000000;stroke-width:14.9724;stroke-miterlimit:10;}
	.st16{fill:none;stroke:#000000;stroke-width:12.9584;stroke-miterlimit:10;}
	.st17{fill:none;stroke:#000000;stroke-width:14.8197;stroke-miterlimit:10;}
	.st18{fill:none;stroke:#000000;stroke-width:14.4491;stroke-miterlimit:10;}
	.st19{fill:none;stroke:#000000;stroke-width:11.6144;stroke-miterlimit:10;}
</style>
<g id="Layer_4">
	<g>
		<g>
			<path class="st0" d="M961.1,760.13L842.52,617.54c-0.94-1.13-2.72-0.97-3.43,0.32c-5.1,9.24-23.44,39.06-49.22,42.54
				c-1.49,0.2-2.18,1.95-1.21,3.1l120.22,142.95C908.88,806.46,948.94,803.56,961.1,760.13z"/>
			<path class="st1" d="M962.38,760.57l7.6,9.14c11.59,13.94,10.98,34.65-1.99,47.32c-0.23,0.22-0.46,0.44-0.69,0.66
				c-14.65,13.84-38.02,12.25-50.99-3.17l-7.05-8.38l18.53-1.96l18.1-11.03l11.78-14.78L962.38,760.57z"/>
			<polygon class="st2" points="788.3,661.47 759.03,576.87 839.75,617.14 824.42,638.86 803.6,656.85 			"/>
			<polygon points="786.02,588.81 767.42,606.66 758.42,575.49 			"/>
		</g>
		<g>
			<path class="st3" d="M961.1,760.13L842.52,617.54c-0.94-1.13-2.72-0.97-3.43,0.32c-5.1,9.24-23.44,39.06-49.22,42.54
				c-1.49,0.2-2.18,1.95-1.21,3.1l120.22,142.95C908.88,806.46,948.94,803.56,961.1,760.13z"/>
			<path class="st3" d="M909.26,806.13l7.05,8.38c12.97,15.43,36.34,17.01,50.99,3.17c0.23-0.22,0.46-0.44,0.69-0.66
				c12.97-12.66,13.58-33.38,1.99-47.32l-7.6-9.14"/>
			<polyline class="st3" points="839.75,617.14 759.03,576.87 788.3,661.47 			"/>
			<polygon points="786.02,588.81 767.42,606.66 758.42,575.49 			"/>
		</g>
	</g>
</g>
<g id="Layer_3">
	<path class="st4" d="M2023.43,1128.32c0,0-215.02,183.07-452.44,204.98l-0.01-5.64l-0.17-68.56
		c69.87-16.02,231.2-69.09,349.69-231.85c0,0,13.05,26.12,34.81,52.08C1973.02,1100.51,1996.53,1121.59,2023.43,1128.32z"/>
	<path class="st4" d="M881.74,1739.28c-63.75,7.34-116.12,0.55-158.36-12.85c-28.34-8.97-52.13-20.91-71.73-33.53
		c-60.45-38.91-82.36-110.16-66.74-179c34.08-150.22,204.42-232.1,244.88-249.62c5.53-2.38,8.63-3.58,8.63-3.58l7.48,73.12
		c0,0-120.94,68.49-138.35,186.1c-2.82,19.04,9.86,36.98,29.12,41.36l3.29,0.74c12.06,2.74,24.73,0.58,35.1-5.99
		c12.44-7.89,33-17.02,60.42-15.91l2.78,29.49l23.66-0.87c16.34,0.15,27.85,1.74,27.85,1.74
		C917.49,1684.29,881.74,1739.28,881.74,1739.28z"/>
	<path class="st5" d="M1510.13,1173.61v537.77c-60.94,17.5-119.12,28.9-173.61,35.76c-257.26,32.43-432.76-35.76-432.76-35.76
		v-537.77H1510.13z"/>
	<path class="st6" d="M1336.52,1747.15c-257.26,32.43-432.76-35.76-432.76-35.76v-537.77h121.46c29.74,63.29-10.67,172.3-6.7,243.83
		c4.02,72.38,23.77,145.76,68.35,202.94C1145.74,1695.91,1241.29,1734.71,1336.52,1747.15z"/>
	<path class="st4" d="M1156.65,1755.89v314.92c0,37.39-19.95,70.1-49.8,88.1c-15.47,9.33-33.6,14.69-52.98,14.69
		c-28.39,0-54.08-11.5-72.68-30.1c-18.61-18.61-30.1-44.3-30.1-72.68v-344.94l54.51,11.3l29.7,6.16L1156.65,1755.89z"/>
	<path class="st4" d="M1445.85,1727.73v343.09c0,56.77-46.02,102.79-102.79,102.79c-16,0-31.15-3.66-44.66-10.17
		c-10.44-5.05-19.91-11.81-28.03-19.93c-18.61-18.61-30.1-44.3-30.1-72.68v-315.75l113.4-10.45l49.74-9.12L1445.85,1727.73z"/>
	<path class="st7" d="M1510.13,999.84l26.89,46.75v117.75c-347.69,123.32-660.16,0-660.16,0v-117.75l26.66-34.97"/>
	<path class="st5" d="M1510.13,1050.49V680.74c0-167.51-135.79-303.3-303.3-303.3h0c-167.51,0-303.3,135.79-303.3,303.3v369.75
		C903.53,1050.49,1161.51,1145.26,1510.13,1050.49z"/>
	<path class="st5" d="M1510.13,680.73v369.76c-201.35,54.73-372.47,46.24-481.11,29.3c-79.45-12.39-125.49-29.3-125.49-29.3V680.73
		c0-83.75,33.95-159.58,88.84-214.46c52.59-52.59,124.41-85.97,204.02-88.65c3.46-0.13,6.96-0.19,10.45-0.19
		C1374.34,377.44,1510.13,513.23,1510.13,680.73z"/>
	<path class="st6" d="M1196.38,377.62c-7.39,12.83-20.59,23.65-32.3,33.51c-90.74,76.4-138.11,194.55-152.49,312.3
		c-14.37,117.76,0.85,236.88,16.04,354.53l1.38,1.84c-79.45-12.39-125.49-29.3-125.49-29.3V680.73
		c0-83.75,33.95-159.58,88.84-214.46C1044.95,413.68,1116.78,380.31,1196.38,377.62z"/>
	<circle class="st8" cx="1054.97" cy="719.56" r="96.49"/>
	<circle class="st8" cx="1342.78" cy="719.71" r="121.51"/>
	<circle cx="1342.78" cy="719.71" r="86.29"/>
	<circle cx="1054.75" cy="719.71" r="68.25"/>
	<path class="st8" d="M1253.44,913.38c-67.9,16.08-150.1,0-150.1,0s3.49,24.43,23.12,44.5c29.47,30.13,78.47,27.53,106.45-3.99
		C1241.71,943.97,1249.34,930.81,1253.44,913.38z"/>
	<circle class="st7" cx="1278.02" cy="231.1" r="27.87"/>
	<polygon class="st7" points="837.83,1279.87 837.83,1320.53 860.56,1358.52 903.53,1373.95 900.55,1214.83 859.07,1234 	"/>
	<polyline class="st7" points="1515.95,1373.95 1546.31,1364.66 1568.38,1339.11 1574.19,1290.33 1564.89,1243.87 1516.11,1216 
		1506.82,1234.58 1510.13,1363.33 	"/>
	<circle class="st9" cx="1360.48" cy="1339.11" r="48.78"/>
	<circle class="st10" cx="1360.48" cy="1339.11" r="26.11"/>
	<polygon class="st11" points="2023.66,1124.24 2134,1004.61 2029.47,922.15 2002.76,958.16 1966.75,940.73 1920.3,1026.68 
		1950.49,1081.27 1994.79,1113.95 	"/>
	<path class="st11" d="M755.88,1562.86c0,0-53.9,79.61-28.36,164.86l49.01,10.78l75.42,3.78l30.03-0.16l17.15-65.11l0.27-75.42
		l-9.29-32.52l-49.78,0.54l-9.92-29.58l-43.74,9.68L755.88,1562.86z"/>
	<path class="st12" d="M833.23,1264.31c-9.98,25.2-39.57,34.83-63.25,48c-43.05,23.95-72.53,66.48-95.4,110.12
		c-14.41,27.48-26.93,56.33-32.32,86.89c-5.39,30.55-3.23,63.11,10.62,90.88c7.77,15.54,19.2,28.72,33.21,38.94
		c9.8,7.15,20.98,13.04,27.13,24.01c5.38,9.56,5.87,21.2,6.98,31.85c1.09,10.48,2.14,20.95,3.18,31.44
		c-28.34-8.97-52.13-20.91-71.73-33.53c-60.45-38.91-82.36-110.16-66.74-179c34.08-150.22,204.42-232.1,244.88-249.62
		C830.93,1264.29,832.08,1264.3,833.23,1264.31z"/>
	<path class="st12" d="M2023.43,1128.32c0,0-215.02,183.07-452.44,204.98l-0.01-5.64c5.62-7.33,12.28-11.29,21.14-12.92
		c33.89-6.26,67.04-14.92,99.28-27.15c64.29-24.38,123.96-60.87,174.91-107.03c28.34-25.66,53.97-54.32,76.13-85.49
		c3.81-5.35,8.05-11.05,12.86-15.74C1973.02,1100.51,1996.53,1121.59,2023.43,1128.32z"/>
	<path class="st12" d="M1106.85,2158.91c-15.47,9.33-33.6,14.69-52.98,14.69c-28.39,0-54.08-11.5-72.68-30.1
		c-18.61-18.61-30.1-44.3-30.1-72.68v-344.94l54.51,11.3l1.17,4.18c-7.31,67.99-14.61,136.66-6.83,204.6
		c7.78,67.94,32.04,136.07,80.01,184.82C1088.96,2139.96,1099.02,2148.82,1106.85,2158.91z"/>
	<path class="st12" d="M1445.85,1727.73v343.09c0,56.77-46.02,102.79-102.79,102.79c-16,0-31.15-3.66-44.66-10.17
		c8.14-12.03,19.85-22.13,30.2-32.65c47.97-48.75,72.23-116.88,80.01-184.82c7.78-67.94,0.48-136.61-6.83-204.6l1.64-5.87
		L1445.85,1727.73z"/>
	<circle class="st8" cx="1364" cy="693" r="42"/>
	<circle class="st8" cx="1073" cy="702" r="33"/>
</g>
<g id="Layer_2">
	<circle class="st13" cx="1054.97" cy="719.56" r="96.49"/>
	<circle class="st13" cx="1342.78" cy="719.71" r="121.51"/>
	<path class="st14" d="M1253.44,913.38c-67.9,16.08-150.1,0-150.1,0s3.49,24.43,23.12,44.5c29.47,30.13,78.47,27.53,106.45-3.99
		C1241.71,943.97,1249.34,930.81,1253.44,913.38z"/>
	<path class="st15" d="M1570.81,1259.1c69.87-16.02,231.19-69.1,349.68-231.85c0,0,43.05,86.09,102.94,101.06
		c0,0-215.01,183.07-452.43,204.99"/>
	<polyline class="st15" points="1920.49,1027.25 1967.28,941.16 2002.84,958 	"/>
	<g>
		<path d="M1974.77,1004.79c1.41-3.99,3.05-7.83,4.77-11.62c1.71-3.79,3.54-7.51,5.43-11.18c1.9-3.67,3.86-7.3,5.91-10.87
			l6.08-10.76l6.21-10.67l6.36-10.58c4.3-7.01,8.66-13.98,13.27-20.78l4.56-6.73l6.31,4.96l104.81,82.35l6.26,4.92l-5.3,5.95
			l-106.68,119.78l-11.18-9.96l106.68-119.78l0.97,10.87l-104.81-82.35l10.88-1.77c-4.43,6.92-9.12,13.68-13.87,20.39l-7.21,10.01
			l-7.36,9.91l-7.49,9.83c-2.48,3.29-5.04,6.52-7.66,9.71c-2.63,3.19-5.32,6.34-8.13,9.4
			C1980.76,998.9,1977.87,1001.92,1974.77,1004.79z"/>
	</g>
	<g>
		<path d="M840.74,1266.76c-3.71,1.46-7.63,3.14-11.43,4.82c-3.82,1.69-7.63,3.44-11.41,5.24c-7.57,3.6-15.07,7.37-22.49,11.3
			c-14.83,7.87-29.33,16.36-43.43,25.46c-14.1,9.1-27.78,18.83-40.93,29.21c-13.15,10.37-25.76,21.42-37.61,33.19
			c-23.72,23.48-44.49,50-59.9,79.38c-3.83,7.35-7.34,14.85-10.48,22.51c-3.09,7.67-5.82,15.48-8.16,23.41l-1.67,5.96l-1.48,6.01
			c-0.52,2-0.91,4.01-1.34,6.02c-0.45,2-0.79,4.03-1.14,6.05c-1.39,8.09-2.26,16.26-2.58,24.45c-0.64,16.37,0.95,32.82,4.95,48.64
			c3.99,15.82,10.41,30.99,19.16,44.69c8.73,13.7,19.8,25.89,32.58,35.94c1.56,1.31,3.25,2.45,4.87,3.68
			c1.61,1.24,3.34,2.33,5.02,3.48c3.36,2.29,6.97,4.46,10.5,6.59c7.13,4.25,14.45,8.16,21.93,11.77c14.96,7.2,30.53,13.15,46.5,17.8
			c15.97,4.61,32.3,8.06,48.83,10.22c33.05,4.43,66.72,4.05,99.98,0.28l-4.69,2.91l0.5-0.85c0.19-0.32,0.38-0.69,0.58-1.04
			c0.38-0.72,0.76-1.44,1.13-2.19c0.74-1.48,1.43-3.03,2.1-4.58c1.34-3.12,2.53-6.33,3.64-9.58c2.16-6.53,3.92-13.25,5.29-20.06
			c1.38-6.81,2.37-13.73,3.07-20.68c0.7-6.95,1.09-13.96,1.16-20.97c0.1-3.51-0.02-7.02-0.04-10.53l-0.2-5.27
			c-0.06-1.76-0.14-3.51-0.27-5.27l-0.35-5.27c-0.13-1.76-0.32-3.51-0.48-5.26c-0.29-3.51-0.74-7.01-1.17-10.51
			c-1.78-14-4.43-27.91-7.78-41.67l5.41,4.88l0,0c-1.89-0.38-4.04-0.74-6.08-1.06c-2.07-0.33-4.16-0.61-6.25-0.89
			c-4.19-0.54-8.4-0.98-12.62-1.32c-8.45-0.7-16.94-0.97-25.43-0.79c-4.25,0.11-8.49,0.34-12.73,0.7
			c-4.24,0.38-8.46,0.92-12.67,1.61c-4.2,0.73-8.38,1.63-12.52,2.74c-4.12,1.15-8.2,2.52-12.19,4.16c3.76-2.12,7.66-4,11.67-5.69
			c4.02-1.64,8.13-3.08,12.3-4.36c4.18-1.23,8.41-2.32,12.68-3.26c4.27-0.91,8.58-1.69,12.91-2.35c8.66-1.27,17.4-2.09,26.16-2.47
			c4.38-0.19,8.78-0.29,13.18-0.28c2.2,0.01,4.41,0.04,6.62,0.11c2.24,0.07,4.37,0.15,6.76,0.32l0,0l4.36,0.59l1.05,4.3
			c3.46,14.18,6.2,28.56,8.05,43.09c0.44,3.64,0.91,7.27,1.22,10.92c0.16,1.83,0.36,3.65,0.5,5.48l0.37,5.49
			c0.14,1.83,0.22,3.66,0.29,5.5l0.21,5.51c0.03,3.68,0.15,7.35,0.04,11.03c-0.07,7.36-0.48,14.73-1.22,22.08
			c-0.73,7.35-1.79,14.69-3.26,21.97c-1.47,7.28-3.35,14.5-5.71,21.62c-1.21,3.55-2.52,7.08-4.02,10.57
			c-0.75,1.75-1.53,3.48-2.4,5.22c-0.42,0.87-0.88,1.73-1.34,2.61c-0.25,0.44-0.47,0.87-0.73,1.32c-0.27,0.47-0.48,0.84-0.88,1.46
			l-1.62,2.56l-3.07,0.35c-34.16,3.88-68.89,4.28-103.17-0.31c-17.13-2.24-34.11-5.82-50.74-10.63
			c-16.63-4.84-32.87-11.04-48.5-18.57c-7.81-3.77-15.47-7.86-22.92-12.3c-3.73-2.25-7.39-4.46-11.06-6.94
			c-1.82-1.24-3.69-2.43-5.44-3.77c-1.77-1.33-3.59-2.57-5.29-3.99c-13.9-10.92-25.98-24.22-35.48-39.14
			c-9.53-14.91-16.5-31.4-20.81-48.49c-4.32-17.09-6.02-34.78-5.34-52.31c0.34-8.77,1.27-17.51,2.76-26.15
			c0.38-2.16,0.74-4.32,1.22-6.46c0.45-2.14,0.87-4.3,1.42-6.4l1.57-6.34l1.77-6.29c2.47-8.35,5.34-16.58,8.6-24.65
			c3.31-8.05,6.99-15.93,11.01-23.63c16.16-30.8,37.78-58.34,62.26-82.57c12.23-12.15,25.2-23.51,38.7-34.16
			c13.49-10.66,27.51-20.62,41.93-29.93c14.42-9.31,29.24-17.98,44.39-26.02c7.58-4.02,15.24-7.88,23-11.56
			c3.88-1.84,7.79-3.63,11.72-5.38c3.97-1.75,7.84-3.42,12.03-5.07L840.74,1266.76z"/>
	</g>
	<path class="st16" d="M845.89,1333.84c0,0-120.94,68.48-138.35,186.1c-2.82,19.03,9.87,36.98,29.13,41.35l3.28,0.75
		c12.05,2.74,24.72,0.58,35.09-5.99c12.45-7.89,33.01-17.03,60.42-15.92l2.78,29.49"/>
	<path class="st16" d="M752.47,1563.13c0,0-55.52,93.12-24.96,164.59"/>
	<path class="st17" d="M1510.13,1050.49V680.74c0-167.51-135.79-303.3-303.3-303.3h0c-167.51,0-303.3,135.79-303.3,303.3v369.75
		C903.53,1050.49,1161.51,1145.26,1510.13,1050.49z"/>
	<path class="st17" d="M1510.13,999.84l26.89,46.75v117.75c-347.69,123.32-660.16,0-660.16,0v-117.75l26.66-34.97"/>
	<path class="st17" d="M903.75,1173.62v537.77c0,0,257.76,100.14,606.38,0v-537.77"/>
	<path class="st18" d="M1510.13,1219.05L1510.13,1219.05c33.8,0,61.19,27.4,61.19,61.19v32.45c0,33.8-27.4,61.19-61.19,61.19"/>
	<path class="st18" d="M899.12,1219.05L899.12,1219.05c-33.8,0-61.19,27.4-61.19,61.19v32.45c0,33.8,27.4,61.19,61.19,61.19"/>
	<path class="st17" d="M1156.65,1755.89v314.93c0,56.77-46.02,102.79-102.79,102.79h0c-56.77,0-102.79-46.02-102.79-102.79v-344.93"
		/>
	<path class="st17" d="M1445.85,1727.72v343.09c0,56.77-46.02,102.79-102.79,102.79h0c-56.77,0-102.79-46.02-102.79-102.79v-315.75"
		/>
	<circle class="st19" cx="1361.06" cy="1339.69" r="48.78"/>
	<path class="st19" d="M1189.06,381.83c-8.67-54.36,19.54-112.71,67.52-139.68"/>
	<circle class="st19" cx="1278.02" cy="231.1" r="30.2"/>
</g>
</svg>
